name C:\Users\u0101727\Documents\MyRepositories\upper-imu-dc\Results\main_tracking\Case_51\kinematics.mot
datacolumns 10
datarows 33
range 2.04000000 2.36000000
endheader 
time	clav_prot	clav_elev	scapula_abduction	scapula_elevation	scapula_upward_rot	scapula_winging	plane_elv	shoulder_elv	axial_rot	
          2.04000000	        -21.36059360	          8.67804264	         -8.15464756	          3.15792075	         23.54880535	          0.42711905	          7.70236065	          7.49907317	         23.19934296	
          2.05000000	        -21.36022026	          8.31803835	         -8.30959667	          2.99795349	         23.10029640	          0.56289231	          6.94400432	          7.83753524	         23.52957937	
          2.06000000	        -21.35849783	          7.93883116	         -8.44686160	          2.82220677	         22.65997028	          0.69826592	          6.15914834	          8.17839157	         23.83626392	
          2.07000000	        -21.35554103	          7.54382026	         -8.56397308	          2.63147443	         22.23457343	          0.83158516	          5.34954880	          8.51844328	         24.11949237	
          2.08000000	        -21.35027776	          7.13755123	         -8.65769124	          2.42772562	         21.82974523	          0.96146532	          4.51776073	          8.85498702	         24.38002282	
          2.09000000	        -21.34173774	          6.72489674	         -8.72595062	          2.21345709	         21.44992769	          1.08678585	          3.66684200	          9.18577151	         24.61953060	
          2.10000000	        -21.32968119	          6.31059625	         -8.76875362	          1.99133767	         21.09831396	          1.20669976	          2.80013741	          9.50901619	         24.84071493	
          2.11000000	        -21.31474525	          5.89895875	         -8.78824149	          1.76398408	         20.77685591	          1.32063944	          1.92112806	          9.82342059	         25.04728455	
          2.12000000	        -21.29821847	          5.49366836	         -8.78813471	          1.53382076	         20.48631468	          1.42831514	          1.03333945	         10.12814307	         25.24383928	
          2.13000000	        -21.28150657	          5.09771850	         -8.77271320	          1.30305539	         20.22629114	          1.52971259	          0.14026387	         10.42275571	         25.43569504	
          2.14000000	        -21.26542817	          4.71345436	         -8.74558950	          1.07375403	         19.99521023	          1.62508835	         -0.75473272	         10.70717530	         25.62869001	
          2.15000000	        -21.24948031	          4.34268060	         -8.70848888	          0.84797251	         19.79027579	          1.71495578	         -1.64849992	         10.98154437	         25.82903736	
          2.16000000	        -21.23116767	          3.98671608	         -8.66017298	          0.62785867	         19.60736348	          1.80008192	         -2.53823573	         11.24601579	         26.04310345	
          2.17000000	        -21.20597268	          3.64610464	         -8.59613115	          0.41536582	         19.44128939	          1.88142585	         -3.42122443	         11.49999264	         26.27763122	
          2.18000000	        -21.36534134	          3.33214881	         -8.86694322	          0.21034385	         19.28335593	          1.96937265	         -4.29334036	         11.74692006	         26.53678555	
          2.19000000	        -21.32045295	          3.01529477	         -8.77646150	          0.01542369	         19.12222291	          2.05145554	         -5.15651622	         11.98633797	         26.83007462	
          2.20000000	        -21.24527739	          2.70606022	         -8.63944927	         -0.17103115	         18.95663104	          2.13465490	         -6.00882230	         12.21842029	         27.16249280	
          2.21000000	        -21.14031727	          2.40356620	         -8.45798972	         -0.34911732	         18.78416581	          2.21925689	         -6.84713914	         12.44273580	         27.53807305	
          2.22000000	        -23.72865156	          2.31617831	        -13.11104560	         -0.52210821	         18.59844408	          2.32707718	         -7.67038904	         12.66430317	         27.95840229	
          2.23000000	        -21.25643290	          1.83529882	         -8.72398455	         -0.68297078	         18.38639447	          2.42325108	         -8.47923957	         12.87877467	         28.43141230	
          2.24000000	        -21.04925811	          1.53318474	         -8.40171707	         -0.84106639	         18.15759194	          2.52360829	         -9.26936952	         13.09196776	         28.95321732	
          2.25000000	        -20.84471089	          1.22557106	         -8.08491870	         -1.00303221	         17.92656874	          2.62584861	        -10.04056609	         13.30099493	         29.52402537	
          2.26000000	        -20.65929805	          0.91183953	         -7.79588836	         -1.17293308	         17.70396942	          2.72856843	        -10.79127748	         13.50483693	         30.14141917	
          2.27000000	        -20.50279245	          0.59237704	         -7.54689510	         -1.35312114	         17.49814115	          2.83080732	        -11.51951232	         13.70299028	         30.80084817	
          2.28000000	        -20.38135533	          0.26832853	         -7.34535794	         -1.54467230	         17.31542193	          2.93193581	        -12.22299391	         13.89513433	         31.49597779	
          2.29000000	        -20.29898695	         -0.05852547	         -7.19617358	         -1.74761056	         17.16035256	          3.03153632	        -12.89920265	         14.08099232	         32.21883578	
          2.30000000	        -20.25817029	         -0.38588296	         -7.10271213	         -1.96104970	         17.03576788	          3.12931327	        -13.54542970	         14.26029338	         32.96014078	
          2.31000000	        -20.26008538	         -0.71101638	         -7.06714482	         -2.18327100	         16.94277958	          3.22502975	        -14.15886558	         14.43275287	         33.70974386	
          2.32000000	        -20.30453370	         -1.03086409	         -7.09035308	         -2.41175362	         16.88064043	          3.31847703	        -14.73672230	         14.59806476	         34.45715857	
          2.33000000	        -20.38956556	         -1.34212342	         -7.17141077	         -2.64316088	         16.84648445	          3.40947909	        -15.27638911	         14.75590368	         35.19212884	
          2.34000000	        -20.51068582	         -1.64137553	         -7.30641142	         -2.87329951	         16.83494896	          3.49793462	        -15.77560651	         14.90593880	         35.90518616	
          2.35000000	        -20.65930031	         -1.92523731	         -7.48605559	         -3.09702782	         16.83767797	          3.58388507	        -16.23264724	         15.04785451	         36.58816711	
          2.36000000	        -20.81996352	         -2.19066318	         -7.69119883	         -3.30817883	         16.84271110	          3.66763228	        -16.64647547	         15.18146665	         37.23458526	
